<svg xmlns="http://www.w3.org/2000/svg" xmlns:xlink="http://www.w3.org/1999/xlink" width="296" height="255" viewBox="0 0 296 255"><defs><path id="u5aje" d="M894.22 559.424c-.762-.761-1.507-1.518-2.264-2.268-1.789-1.79-3.589-3.574-5.372-5.368-1.29-1.294-1.72-2.844-1.183-4.585.538-1.752 1.779-2.806 3.584-3.126 1.48-.26 2.79.176 3.882 1.209.463.437.9.91 1.363 1.38.448-.453.874-.895 1.31-1.321 2.45-2.413 6.534-1.417 7.53 1.853.506 1.666.16 3.2-1.06 4.44-2.54 2.594-5.133 5.14-7.7 7.706-.021.021-.048.043-.09.08"/><path id="u5ajf" d="M1059.684 638.333c0 8.084-6.491 14.633-14.492 14.633H778.498c-8.007 0-14.498-6.555-14.498-14.633v-172.7c0-8.079 6.491-14.633 14.492-14.633h266.695c8.006 0 14.492 6.554 14.492 14.633v172.7z"/><path id="u5ajg" d="M1048.768 621.293c0 6.89-6.018 12.476-13.443 12.476H788.008c-7.426 0-13.443-5.585-13.443-12.477V474.096c0-6.892 6.017-12.477 13.443-12.477h247.317c7.425 0 13.443 5.585 13.443 12.477z"/><path id="u5ajh" d="M920.543 556.5s2.487-13.488 2.838-19.527c.357-13.137-2.486-27.69-8.876-39.405-9.586-17.397-16.135-25.683-33.527-34.911"/><path id="u5aja" d="M774.57 633.769v-23.047h274.198v23.047z"/><path id="u5ajj" d="M1048.768 610.722v10.736c0 6.8-6.018 12.311-13.443 12.311H788.008c-7.426 0-13.443-5.511-13.443-12.312v-10.383"/><path id="u5ajk" d="M1028.666 470.213l-9.676.085a8.98 8.98 0 0 1-8.903 9.058c-4.963.043-9.016-3.946-9.064-8.904l-9.127.08-12.572 12.514 10.123 9 .351 40.683 42.446-.368-.351-40.683 9.75-9.17z"/><path id="u5ajl" d="M1028.666 539.374l-9.676.085a8.98 8.98 0 0 1-8.903 9.058c-4.963.043-9.016-3.946-9.064-8.903l-9.127.08-12.572 12.513 10.123 9 .351 40.683 42.446-.367-.351-40.684 9.75-9.17z"/><path id="u5ajm" d="M1000.778 564.201c.878-3.088 4.483-4.425 6.592-1.55 1.007 1.37 3.318.043 2.3-1.341-3.429-4.665-9.899-3.302-11.459 2.183-.474 1.65 2.098 2.354 2.567.708"/><path id="u5ajn" d="M1016.061 563.246a5.033 5.033 0 1 1-7.844 6.31 5.033 5.033 0 1 1 7.844-6.31z"/><path id="u5ajo" d="M786.695 536.622V476.98h111.118v59.64z"/><path id="u5ajp" d="M908.377 536.621v-60.343h34.64v60.343z"/><path id="u5ajb" d="M908.377 537.456V517.79h34.64v19.666z"/><path id="u5ajr" d="M793.059 491.29c1.464-5.139 7.466-7.104 10.895-2.433 1.006 1.368 3.317.042 2.3-1.342-4.75-6.47-13.616-4.457-15.762 3.072-.468 1.65 2.098 2.349 2.567.703"/><path id="u5ajs" d="M816.111 490.026a7.429 7.429 0 0 1-1.134 10.448 7.429 7.429 0 0 1-10.448-1.134 7.429 7.429 0 0 1 1.134-10.448 7.429 7.429 0 0 1 10.448 1.134z"/><path id="u5ajt" d="M915.255 496.033c1.097-3.856 5.597-5.426 8.2-1.88 1.007 1.369 3.318.043 2.301-1.342-3.924-5.34-11.289-3.733-13.068 2.514-.474 1.65 2.098 2.353 2.567.708"/><path id="u5aju" d="M933.408 494.958a5.935 5.935 0 0 1-.905 8.339 5.926 5.926 0 0 1-8.339-.906c-2.055-2.55-1.645-6.283.905-8.339a5.925 5.925 0 0 1 8.34.906z"/><path id="u5ajv" d="M856.452 512.692v-2.902h35.145v2.902z"/><path id="u5ajw" d="M856.452 519.377v-2.902h35.145v2.902z"/><path id="u5ajx" d="M856.452 526.002V523.1h35.145v2.902z"/><path id="u5ajc" d="M786.695 604.056v-59.64h111.118v59.64z"/><path id="u5ajz" d="M897.813 544.415v59.64H786.695z"/><path id="u5ajA" d="M856.452 579.395v-2.902h35.145v2.902z"/><path id="u5ajB" d="M856.452 586.08v-2.902h35.145v2.902z"/><path id="u5ajC" d="M856.452 592.705v-2.902h35.145v2.902z"/><path id="u5ajD" d="M792.457 569.894c-1.326-4.137 5.879-2.875 8.153-3.04 2.636-.192 4.36-1.758 5.4-4.1.516-1.167-1.204-2.184-1.726-1.007-1.928 4.33-5.99 2.78-9.803 3.227-3.01.351-4.931 2.407-3.957 5.453.4 1.22 2.327.697 1.933-.533"/><path id="u5ajE" d="M805.117 562.14l-3.45-9.461 9.46-3.45 3.45 9.46z"/><path id="u5ajF" d="M998.09 508.897c-1.325-4.138 5.88-2.876 8.153-3.04 2.636-.192 4.361-1.758 5.4-4.101.516-1.166-1.204-2.183-1.726-1.006-1.927 4.329-5.99 2.78-9.803 3.227-3.009.351-4.936 2.407-3.956 5.452.399 1.22 2.327.698 1.932-.532"/><path id="u5ajG" d="M1010.844 501.138l-3.45-9.46 9.461-3.45 3.45 9.46z"/><path id="u5ajH" d="M897.468 628.694l-4.132-7.918-3.365 5.485 1.272 2.433c.15.016 6.225 0 6.225 0"/><path id="u5ajI" d="M882.918 599.62l-3.366-6.448-5.713.746-.118.016 8.01 15.341 3.36-5.485z"/><path id="u5ajJ" d="M888.888 584.654l-.07.075.176.133z"/><path id="u5ajK" d="M897.555 613.922l7.711 14.772h6.177l-10.522-20.256z"/><path id="u5ajL" d="M888.992 585.71l-.175-.133-3.888 4.27 3.36 6.444.267.506 3.36-5.485z"/><path id="u5ajM" d="M897.477 628.694h7.78l-7.705-14.771-4.207 6.853z"/><path id="u5ajN" d="M889.04 596.365l-3.36-6.443-6.119 3.19 3.366 6.448 2.172 4.17 4.207-6.859z"/><path id="u5ajO" d="M871.995 570.007l2.189 9.787 4.59-2.39z"/><path id="u5ajP" d="M910.498 582.94l5.24 1.055.532-12.918-4.007-2.514-10.546 6.832 3.323 4.201z"/><path id="u5ajQ" d="M915.719 584.092l-5.24-1.055-3.53 5.751-8.803 14.357-3.36 5.484-4.201 6.86-3.366 5.484-4.739 7.727c.133.026 6.007 0 6.007 0l1.49-2.434 3.366-5.485 4.202-6.853 3.36-5.485 14.915-24.33z"/><path id="u5ajR" d="M901.675 575.486l-.064-.074-9.702 15.82-3.36 5.485-4.207 6.859-3.36 5.485-12.008 19.633h5.958l8.808-14.34 3.366-5.49 4.201-6.854 3.365-5.484 6.8-11.087 3.526-5.751z"/><path id="u5ajS" d="M905.009 579.688l-3.526 5.75-6.8 11.088-3.365 5.484-4.202 6.86-3.365 5.484-8.808 14.34h7.525l4.739-7.726 3.36-5.485 4.207-6.854 3.36-5.484 8.808-14.357 3.525-5.756z"/><path id="u5ajT" d="M918.965 562.16l-6.747 6.412 4.09 2.513z"/><path id="u5ajU" d="M956.93 480.788l2.502 3.643"/><path id="u5ajV" d="M954.798 477.69l1.215 5.59 1.075-2.263 2.492-.186z"/><path id="u5ajW" d="M869.973 565.132s-2.486-13.489-2.838-19.527c-.357-13.137 2.487-27.69 8.877-39.406 9.585-17.396 25.56-31.242 42.957-40.47"/><path id="u5ajX" d="M786.983 627.038v-9.585h9.585v9.585z"/><path id="u5ajY" d="M802.49 627.038v-9.585h9.585v9.585z"/><path id="u5ajZ" d="M817.843 627.038v-9.585h9.585v9.585z"/><path id="u5ajaa" d="M885.674 589.792l3.887-4.271-10.778-7.977-4.59 2.391-.351 13.792 5.713-.746z"/><path id="u5ajab" d="M912.15 591.155c-2.987 2.236-12.945 7.737-11.331 9.137 1.842-.836 4.335-4.158 5.671-3.999-.852 2.317-5.97 5.31-4.478 6.007 1.98-.948 3.466-3.328 5.245-4.798.176 2.162-5.043 5.634-3.616 6.214 1.827-1.033 4.383-5.005 6.321-6.837.57-.703 6.3-6.587 2.519-5.309"/><path id="u5ajac" d="M946.401 543.867l-2.321 6.081-12.743 24.8-23.015 18.956 2.854 2.37 26.652-16.481 19.32-29.527-3.377-5.48z"/><path id="u5ajad" d="M945.272 491.486c-2.572-2.705-11.48-9.782-9.66-10.89 1.678 1.13 3.585 4.82 4.932 4.889-.453-2.423-5.006-6.23-3.419-6.667 1.795 1.262 2.87 3.855 4.377 5.602.533-2.103-4.036-6.395-2.534-6.726 1.624 1.321 3.493 5.666 5.101 7.791.447.788 5.117 7.546 1.603 5.655"/><path id="u5ajae" d="M960.54 547.9l-.128-6.507-3.61-27.648-15.257-25.619 3.488-1.267 19.51 24.516 8.207 34.32-5.032 4.015z"/><path id="u5ajaf" d="M1007.16 696.46l-.026 4.564-16.583-.09 11.486-4.5"/><path id="u5ajag" d="M947.445 701.386l-.016 4.564-16.582-.059 11.48-4.52"/><path id="u5ajah" d="M950.72 608.155l-3.28 92.262-5.501-.197-5.549-95.77z"/><path id="u5ajai" d="M965.891 603.123l15.645 45.913 25.624 45.758-6.166.075-28.218-40.982-25.8-48.698z"/><path id="u5ajaj" d="M969.352 606.062l-34.192 3.088 5.118-54.209s4.185-15.442 14.154-16.816c0 0 16.47 2.652 18.398 8.275 3.594 10.496-3.478 59.662-3.478 59.662"/><path id="u5ajd" d="M946.865 608.184v-58.869h26.987v58.869z"/><path id="u5ajal" d="M973.447 549.315c.048 1.097.011 2.21-.026 3.254-.118 3.386-.495 6.79-1.305 10.085-1.699 6.912-3.999 13.846-6.848 20.369-2.8 6.422-6.278 12.407-10.959 17.652-2.354 2.636-4.867 5.107-7.45 7.509l22.493-2.03c0-.005 6.092-42.376 4.095-56.839"/><path id="u5ajam" d="M969.898 536.473l-8.1 6.145h-3.264l-10.165-2.306 5.815-2.53z"/><path id="u5ajan" d="M946.407 519.267c2.465-.612 3.749-1.209 4.686-2.114 3.946-7.929 11.337-12.343 17.152-9.968 6.23 2.54 8.301 11.912 4.627 20.922-3.68 9.015-13.147 13.499-19.383 10.959-5.602-2.285-6.395-9.33-4.127-17.424-2.071-.128-2.503-1.406-2.955-2.375"/><path id="u5ajao" d="M966.972 536.664s14.154-11.507 8.318-24.612c-3.51-7.881-13.819-7.509-13.819-7.509s-5.075 2.674-4.223 4.926c1.119 2.934 4.43 3.541 4.43 3.541l-5.132 8.717 6.214 2.29"/><path id="u5ajap" d="M954.107 518.916c-.756.32-1.348.287-1.976-.112-.634-.4-1.23-1.113-1.486-1.773-.271-.72-.122-1.54.432-2.317.612-.862 1.342-1.56 1.698-1.736.016-.005.032-.005.048-.01.442-.112 1.012.026 1.992.82.98.793 1.613 1.88 1.72 2.54.08.495-.352 1.065-.58 1.331-.347.314-1.14.959-1.848 1.257"/><path id="u5ajaq" d="M955.646 516.807l2.423 2.327"/><clipPath id="u5aji"><use xlink:href="#u5aja"/></clipPath><clipPath id="u5ajq"><use xlink:href="#u5ajb"/></clipPath><clipPath id="u5ajy"><use xlink:href="#u5ajc"/></clipPath><clipPath id="u5ajak"><use xlink:href="#u5ajd"/></clipPath></defs><g><g transform="translate(-764 -451)"><g><g><use fill="#c361a2" xlink:href="#u5aje"/></g><g><use fill="#93cdf1" xlink:href="#u5ajf"/></g><g><use fill="#4488c8" xlink:href="#u5ajg"/></g><g><use fill="#fff" fill-opacity="0" stroke="#0ce49f" stroke-dasharray="9 9 9 9 9 9" stroke-miterlimit="50" stroke-width="2" xlink:href="#u5ajh"/></g><g><g><g><g><use xlink:href="#u5aja"/></g><g clip-path="url(#u5aji)"><use fill="#4488c8" xlink:href="#u5ajj"/></g></g></g></g><g><use fill="#102e77" xlink:href="#u5ajk"/></g><g><use fill="#fff" xlink:href="#u5ajl"/></g><g><use fill="#4488c8" xlink:href="#u5ajm"/></g><g><use fill="#fff" fill-opacity="0" stroke="#4488c8" stroke-miterlimit="50" stroke-width="5" xlink:href="#u5ajn"/></g><g><use fill="#102e77" xlink:href="#u5ajo"/></g><g><use fill="#93cdf1" xlink:href="#u5ajp"/></g><g><g><g><g><use xlink:href="#u5ajb"/></g><g clip-path="url(#u5ajq)"><use fill="#93cdf1" xlink:href="#u5ajb"/></g></g></g></g><g><use fill="#fff" xlink:href="#u5ajr"/></g><g><use fill="#fff" fill-opacity="0" stroke="#fff" stroke-miterlimit="50" stroke-width="5" xlink:href="#u5ajs"/></g><g><use fill="#fff" xlink:href="#u5ajt"/></g><g><use fill="#fff" fill-opacity="0" stroke="#fff" stroke-miterlimit="50" stroke-width="5" xlink:href="#u5aju"/></g><g><use fill="#fff" xlink:href="#u5ajv"/></g><g><use fill="#fff" xlink:href="#u5ajw"/></g><g><use fill="#fff" xlink:href="#u5ajx"/></g><g><g><g><g><use xlink:href="#u5ajc"/></g><g clip-path="url(#u5ajy)"><use fill="#93cdf1" xlink:href="#u5ajz"/></g></g></g></g><g><use fill="#93cdf1" xlink:href="#u5ajA"/></g><g><use fill="#93cdf1" xlink:href="#u5ajB"/></g><g><use fill="#93cdf1" xlink:href="#u5ajC"/></g><g><use fill="#fff" xlink:href="#u5ajD"/></g><g><use fill="#fff" fill-opacity="0" stroke="#fff" stroke-miterlimit="50" stroke-width="5" xlink:href="#u5ajE"/></g><g><use fill="#fff" xlink:href="#u5ajF"/></g><g><use fill="#fff" fill-opacity="0" stroke="#fff" stroke-miterlimit="50" stroke-width="5" xlink:href="#u5ajG"/></g><g/><g><use fill="#4d97d2" xlink:href="#u5ajH"/></g><g><use fill="#4d97d2" xlink:href="#u5ajI"/></g><g><use fill="#2b7aae" xlink:href="#u5ajJ"/></g><g><use fill="#2b7aae" xlink:href="#u5ajK"/></g><g><use fill="#2b7aae" xlink:href="#u5ajL"/></g><g><use fill="#59a6db" xlink:href="#u5ajM"/></g><g><use fill="#59a6db" xlink:href="#u5ajN"/></g><g><use fill="#59a6db" xlink:href="#u5ajO"/></g><g><use fill="#fff" xlink:href="#u5ajP"/></g><g><use fill="#0cbb83" xlink:href="#u5ajQ"/></g><g><use fill="#0cbb83" xlink:href="#u5ajR"/></g><g><use fill="#0ce49f" xlink:href="#u5ajS"/></g><g><use fill="#0ce49f" xlink:href="#u5ajT"/></g><g><use fill="#fff" fill-opacity="0" stroke="#fff" stroke-dasharray="12 12 12 12 12 12" stroke-miterlimit="50" xlink:href="#u5ajU"/></g><g><use fill="#fff" xlink:href="#u5ajV"/></g><g><use fill="#fff" fill-opacity="0" stroke="#b8e2fa" stroke-dasharray="9 9 9 9 9 9" stroke-miterlimit="50" stroke-width="2" xlink:href="#u5ajW"/></g><g><use fill="#93cdf1" xlink:href="#u5ajX"/></g><g><use fill="#4488c8" xlink:href="#u5ajY"/></g><g><use fill="#e2e9f7" xlink:href="#u5ajZ"/></g><g><use fill="#fff" xlink:href="#u5ajaa"/></g></g><g><g><use fill="#e2e9f7" xlink:href="#u5ajab"/></g><g><use fill="#1a45aa" xlink:href="#u5ajac"/></g><g><use fill="#e2e9f7" xlink:href="#u5ajad"/></g><g><use fill="#1a45aa" xlink:href="#u5ajae"/></g><g><use fill="#183962" xlink:href="#u5ajaf"/></g><g><use fill="#183962" xlink:href="#u5ajag"/></g><g><use fill="#183962" xlink:href="#u5ajah"/></g><g><use fill="#183962" xlink:href="#u5ajai"/></g><g><use fill="#1a45aa" xlink:href="#u5ajaj"/></g><g opacity=".3"><g opacity=".3"><g opacity=".3"><g opacity=".3"><use fill="#102e77" xlink:href="#u5ajd"/></g><g clip-path="url(#u5ajak)" opacity=".3"><use fill="#102e77" xlink:href="#u5ajal"/></g></g></g></g><g><use fill="#102e77" xlink:href="#u5ajam"/></g><g><use fill="#e2e9f7" xlink:href="#u5ajan"/></g><g><use fill="#183962" xlink:href="#u5ajao"/></g><g><use fill="#3a3634" xlink:href="#u5ajap"/></g><g><use fill="#fff" fill-opacity="0" stroke="#3a3634" stroke-miterlimit="50" xlink:href="#u5ajaq"/></g></g></g></g></svg>