<svg xmlns="http://www.w3.org/2000/svg" xmlns:xlink="http://www.w3.org/1999/xlink" width="140" height="48" viewBox="0 0 140 48"><defs><path id="x0rja" d="M222.708 52.111c0-.913.28-1.652.843-2.214.562-.562 1.3-.844 2.214-.844.914 0 1.652.282 2.215.844.562.562.843 1.3.843 2.214 0 .915-.28 1.652-.843 2.215-.563.562-1.301.843-2.215.843-.914 0-1.653-.28-2.214-.843-.562-.563-.843-1.301-.843-2.215z"/><path id="x0rjb" d="M223.113 85.038V57.994h5.379v27.044z"/><path id="x0rjc" d="M233.698 62.978l-2.205.007v-4.992l2.187.006c-.006-1.96-.01-3.92-.013-5.88h5.378c.003 1.958.005 3.914.01 5.872l3.61-.002v4.992h-3.632c.043 6.043.058 10.327.012 11.704-.024.769.01 1.188.08 2.03.052.651.157 1.231.315 1.74.158.511.387.923.686 1.24.08.085.167.159.262.224.165.114.412.238.925.303.307.039.773.065 1.349-.031v4.8c-.322.027-.809.053-1.402.03-1.053-.043-2.353-.08-3.692-.843a6.674 6.674 0 0 1-1.617-1.28 6.811 6.811 0 0 1-.73-.96c-.773-1.223-1.033-2.397-1.212-3.244-.341-1.613-.293-2.9-.288-3.137.045-2.394.017-6.736-.023-12.579z"/><path id="x0rjd" d="M245.304 85.126V47.778h5.325v37.348z"/><path id="x0rje" d="M256.168 89.915a11.474 11.474 0 0 0 4.976-1.995 11.353 11.353 0 0 0 2.753-2.803l-10.629-26.996h6.011l7.487 18.718L274.2 58.12h5.8l-10.704 26.152c-.078.203-.194.495-.346.844-1.017 2.337-2.437 4.48-3.555 5.66-3.088 3.264-8.264 3.835-9.22 3.928l-.007-4.79z"/><path id="x0rjf" d="M183.146 79.54c.54 0 1.044-.027 1.512-.08a6.257 6.257 0 0 0 1.594-.379c1.152-.45 1.728-1.188 1.728-2.214s-.576-1.756-1.728-2.188c-.451-.18-.983-.306-1.594-.379a13.13 13.13 0 0 0-1.512-.081c-3.368 0-5.933-.855-7.698-2.566-1.477-1.44-2.214-3.204-2.214-5.294 0-2.107.738-3.872 2.214-5.294 1.765-1.71 4.33-2.566 7.698-2.566 3.204 0 5.69.784 7.454 2.35.34.302 1.073.98 1.656 2.109a7.273 7.273 0 0 1 .797 3.308c-1.809-.006-3.618-.01-5.427-.017a2.07 2.07 0 0 0-.22-.708c-.37-.7-1.057-.984-1.48-1.157a5.057 5.057 0 0 0-1.404-.324 11.046 11.046 0 0 0-1.377-.081c-.505 0-.972.027-1.405.081a6.808 6.808 0 0 0-1.432.324c-1.08.397-1.62 1.054-1.62 1.972 0 .919.54 1.576 1.62 1.972.397.144.873.253 1.432.324.433.055.9.08 1.405.08 3.493 0 6.167.892 8.021 2.675 1.53 1.477 2.296 3.295 2.296 5.456 0 2.18-.766 4.007-2.296 5.484-1.854 1.783-4.528 2.674-8.021 2.674-3.368 0-5.979-.828-7.833-2.485a7.255 7.255 0 0 1-1.646-2.084 7.396 7.396 0 0 1-.826-3.53l5.444-.032c.018 1.027.603 1.756 1.756 2.188.45.18.98.305 1.594.378.467.057.971.084 1.512.084z"/><path id="x0rjg" d="M143.795 80.684c-2.53-2.893-3.795-6.888-3.795-11.981V47.91h6.653v19.076c0 2.53.226 4.635.676 6.316.45 1.681 1.29 2.989 2.521 3.924 1.23.936 2.971 1.404 5.224 1.404 2.252 0 3.994-.468 5.225-1.404 1.23-.935 2.07-2.243 2.521-3.924.45-1.68.676-3.786.676-6.316V47.911h6.654v20.792c0 5.093-1.266 9.088-3.795 11.981-2.53 2.894-6.29 4.341-11.28 4.341-4.99 0-8.75-1.447-11.28-4.34z"/><path id="x0rjh" d="M208.275 62.722c-1.949 0-3.41.496-4.384 1.487-.974.993-1.639 2.285-1.992 3.878h12.643c-.177-1.522-.789-2.797-1.833-3.825-1.043-1.027-2.522-1.54-4.434-1.54zm10.837 18.221a11.84 11.84 0 0 1-4.25 3.054c-1.63.691-3.596 1.037-5.897 1.037-2.16 0-4.037-.363-5.63-1.088-1.595-.726-2.923-1.708-3.985-2.948a12.574 12.574 0 0 1-2.39-4.25 15.854 15.854 0 0 1-.798-5.047c0-2.337.32-4.364.957-6.083.637-1.717 1.514-3.142 2.629-4.276a10.63 10.63 0 0 1 3.852-2.524c1.451-.548 3.01-.823 4.675-.823 3.931 0 6.879 1.275 8.844 3.825 1.966 2.55 2.95 6.269 2.95 11.156h-18.382c.283 2.231 1.07 3.977 2.365 5.232 1.292 1.258 3.002 1.885 5.126 1.885a8.761 8.761 0 0 0 3.665-.796c1.17-.532 2.32-1.417 3.454-2.657l3.4 3.613z"/></defs><g><g transform="translate(-140 -47)"><g/><g><use fill="#2f6dff" xlink:href="#x0rja"/></g><g><use fill="#2f6dff" xlink:href="#x0rjb"/></g><g><use fill="#2f6dff" xlink:href="#x0rjc"/></g><g><use fill="#2f6dff" xlink:href="#x0rjd"/></g><g><use fill="#2f6dff" xlink:href="#x0rje"/></g><g/><g><g><use fill="#2f6dff" xlink:href="#x0rjf"/></g></g><g><g><use fill="#2f6dff" xlink:href="#x0rjg"/></g></g><g><g><use fill="#2f6dff" xlink:href="#x0rjh"/></g></g></g></g></svg>
