<svg xmlns="http://www.w3.org/2000/svg" xmlns:xlink="http://www.w3.org/1999/xlink" width="22" height="19" viewBox="0 0 22 19"><defs><path id="8mefa" d="M329.204 784.666c-.823.933-1.957 1.683-3.366 2.232-1.409.549-2.927.823-4.556.823-.494 0-1.006-.036-1.555-.091l-.677-.073-.512.457c-.97.86-2.067 1.537-3.275 2.03.366-.64.64-1.335.842-2.048l.33-1.153-1.044-.604c-1.024-.585-1.83-1.28-2.396-2.085-.567-.805-.86-1.647-.86-2.543 0-1.098.42-2.104 1.244-3.037.823-.933 1.957-1.683 3.366-2.232 1.409-.55 2.927-.824 4.556-.824 1.628 0 3.147.275 4.555.824 1.409.549 2.525 1.299 3.367 2.232.823.933 1.244 1.957 1.244 3.037 0 1.116-.421 2.122-1.263 3.055zm1.354-6.86c-.951-1.171-2.25-2.105-3.878-2.781-1.647-.677-3.44-1.025-5.38-1.025-1.939 0-3.731.348-5.36 1.025-1.646.676-2.927 1.61-3.878 2.78-.97 1.171-1.446 2.452-1.446 3.824 0 1.19.366 2.305 1.08 3.348.713 1.043 1.701 1.921 2.945 2.616-.091.311-.183.622-.31.915-.129.293-.22.512-.33.695-.092.183-.22.385-.384.604-.165.22-.293.384-.366.476-.092.091-.22.238-.42.457-.184.22-.312.348-.367.42 0 0-.036.037-.091.11-.055.074-.092.11-.092.11l-.073.11c-.037.055-.055.092-.055.11 0 .018 0 .055-.018.128-.018.055-.018.11 0 .146v.019a.732.732 0 0 0 .183.329.44.44 0 0 0 .33.128h.054c.512-.055.97-.146 1.354-.256a13.02 13.02 0 0 0 5.488-2.89c.604.054 1.171.09 1.72.09 1.94 0 3.732-.347 5.36-1.024 1.647-.677 2.928-1.61 3.88-2.78.95-1.172 1.426-2.452 1.426-3.843.055-1.39-.42-2.67-1.372-3.842z"/></defs><g><g transform="translate(-310 -774)"><use fill="#2f6dff" xlink:href="#8mefa"/></g></g></svg>