<svg xmlns="http://www.w3.org/2000/svg" xmlns:xlink="http://www.w3.org/1999/xlink" width="72" height="72" viewBox="0 0 72 72"><defs><path id="wyfna" d="M998 706c0-17.12 13.88-31 31-31 17.12 0 31 13.88 31 31 0 17.12-13.88 31-31 31-17.12 0-31-13.88-31-31z"/><path id="wyfnd" d="M1034.424 706.085l2.605 1.955v7.381h-1.852l-.753-1.507zm-8.684 7.165v-2.605h6.947v2.605zm-2.49 2.171h-1.852v-7.38l2.605-1.953v7.826zm5.095-22.143v13.46h-2.605v-13.46zm4.342 0v13.46h-2.605v-13.46zm-6.947 15.196h6.947v.434h-6.947zm2.932-21.709h1.08l2.386 4.776h-5.853zm-4.669 17.149l-3.994 2.994a.865.865 0 0 0-.347.694v8.684c0 .48.389.868.868.868h3.258a.87.87 0 0 0 .778-.479l.844-1.692h7.61l.844 1.692c.146.295.448.48.778.48h3.258c.48 0 .869-.39.869-.869v-8.684a.865.865 0 0 0-.348-.694l-3.994-2.998v-11.49-.01c0-.18-.056-.351-.15-.49l-3.16-6.308a.865.865 0 0 0-.1-.205l-1.029-2.052a.864.864 0 0 0-.775-.48.873.873 0 0 0-.778.48l-4.282 8.565a.877.877 0 0 0-.15.49v.017z"/><path id="wyfne" d="M1040.068 701.743a.434.434 0 0 0-.434.434v.653h-.653a.434.434 0 0 0 0 .868h.653v.653a.434.434 0 0 0 .868 0v-.653h.653a.434.434 0 0 0 0-.868h-.653v-.653a.434.434 0 0 0-.434-.434z"/><path id="wyfnf" d="M1042.239 716.939a.434.434 0 0 0-.434.434v.653h-.653a.434.434 0 0 0 0 .869h.653v.653a.434.434 0 0 0 .868 0v-.653h.653a.434.434 0 0 0 0-.869h-.653v-.653a.434.434 0 0 0-.434-.434z"/><path id="wyfng" d="M1037.897 724.32c.24 0 .434-.194.434-.434v-.653h.65a.434.434 0 0 0 0-.869h-.653v-.653a.434.434 0 0 0-.869 0v.653h-.653a.434.434 0 0 0 0 .869h.653v.653c.004.24.195.434.438.434z"/><path id="wyfnh" d="M1018.359 704.782c.24 0 .434-.194.434-.434v-.653h.653a.434.434 0 0 0 0-.868h-.653v-.653a.434.434 0 0 0-.868 0v.653h-.653a.434.434 0 0 0 0 .868h.653v.653c0 .24.19.434.434.434z"/><path id="wyfni" d="M1016.188 719.978c.24 0 .434-.194.434-.434v-.653h.65a.434.434 0 0 0 0-.868h-.65v-.653a.434.434 0 0 0-.868 0v.653h-.653a.434.434 0 0 0 0 .868h.653v.653c0 .24.191.434.434.434z"/><path id="wyfnj" d="M1020.53 724.32c.24 0 .434-.194.434-.434v-.653h.65a.434.434 0 0 0 0-.869h-.653v-.653a.434.434 0 0 0-.869 0v.653h-.653a.434.434 0 0 0 0 .869h.653v.653c.004.24.195.434.438.434z"/><mask id="wyfnc" width="2" height="2" x="-1" y="-1"><path fill="#fff" d="M998 675h62v62h-62z"/><use xlink:href="#wyfna"/></mask><filter id="wyfnb" width="94" height="97" x="982" y="659" filterUnits="userSpaceOnUse"><feOffset dy="3" in="SourceGraphic" result="FeOffset1079Out"/><feGaussianBlur in="FeOffset1079Out" result="FeGaussianBlur1080Out" stdDeviation="2.4 2.4"/></filter></defs><g><g transform="translate(-993 -673)"><g filter="url(#wyfnb)"><use fill="none" stroke-opacity=".16" stroke-width="0" mask="url(&quot;#wyfnc&quot;)" xlink:href="#wyfna"/><use fill-opacity=".16" xlink:href="#wyfna"/></g><use fill="#2f6dff" xlink:href="#wyfna"/></g><g transform="translate(-993 -673)"><g><use fill="#fff" xlink:href="#wyfnd"/></g><g><use fill="#fff" xlink:href="#wyfne"/></g><g><use fill="#fff" xlink:href="#wyfnf"/></g><g><use fill="#fff" xlink:href="#wyfng"/></g><g><use fill="#fff" xlink:href="#wyfnh"/></g><g><use fill="#fff" xlink:href="#wyfni"/></g><g><use fill="#fff" xlink:href="#wyfnj"/></g></g></g></svg>