<svg xmlns="http://www.w3.org/2000/svg" xmlns:xlink="http://www.w3.org/1999/xlink" width="64" height="46" viewBox="0 0 64 46"><defs><path id="pde6a" d="M610.688 918.019a1.68 1.68 0 0 0-1.67 1.685v38.175c0 .925.753 1.677 1.67 1.677h56.616a1.68 1.68 0 0 0 1.677-1.677v-38.175a1.68 1.68 0 0 0-1.677-1.677h-56.616zm56.616 42.556h-56.616A2.7 2.7 0 0 1 608 957.87v-38.167a2.7 2.7 0 0 1 2.688-2.704h56.616a2.703 2.703 0 0 1 2.696 2.704v38.175a2.696 2.696 0 0 1-2.696 2.696z"/><path id="pde6b" d="M669.49 925.817h-60.98a.508.508 0 1 1 0-1.019h60.98a.508.508 0 1 1 0 1.019z"/><path id="pde6c" d="M611.582 922.51h2.21v-2.203h-2.21zm2.72 1.018h-3.23a.508.508 0 0 1-.51-.509v-3.221c0-.282.228-.51.51-.51h3.23c.281 0 .509.228.509.51v3.229a.507.507 0 0 1-.51.501z"/><path id="pde6d" d="M617.86 922.51h2.201v-2.203h-2.202zm2.719 1.018h-3.221a.508.508 0 0 1-.51-.509v-3.221c0-.282.227-.51.51-.51h3.22c.283 0 .51.228.51.51v3.229a.507.507 0 0 1-.51.501z"/><path id="pde6e" d="M624.137 922.51h2.202v-2.203h-2.202zm2.711 1.018h-3.228a.508.508 0 0 1-.51-.509v-3.221c0-.282.227-.51.51-.51h3.228c.283 0 .51.228.51.51v3.229a.507.507 0 0 1-.51.501z"/><path id="pde6f" d="M631.128 953.545a.53.53 0 0 1-.33-.118l-12.79-10.635a.502.502 0 0 1-.18-.392c0-.149.07-.297.18-.392l12.1-10.062c.22-.18.541-.15.722.062.18.22.149.541-.063.721l-11.638 9.671 12.32 10.244a.51.51 0 0 1-.321.9z"/><path id="pde6g" d="M646.872 953.545a.514.514 0 0 1-.391-.18.517.517 0 0 1 .062-.721l12.32-10.244-11.63-9.679a.51.51 0 0 1-.063-.72.51.51 0 0 1 .721-.063l12.1 10.063c.118.094.181.243.181.391 0 .15-.07.298-.18.392l-12.79 10.643a.53.53 0 0 1-.33.118z"/><path id="pde6h" d="M632.609 955.825a.509.509 0 0 1-.455-.737l12.673-25.266a.509.509 0 0 1 .91.454l-12.674 25.267a.5.5 0 0 1-.454.282z"/></defs><g><g transform="translate(-607 -916)"><g><g><g><use fill="#2f6dff" xlink:href="#pde6a"/><use fill="#fff" fill-opacity="0" stroke="#2f6dff" stroke-miterlimit="50" xlink:href="#pde6a"/></g></g><g><g><use fill="#2f6dff" xlink:href="#pde6b"/><use fill="#fff" fill-opacity="0" stroke="#2f6dff" stroke-miterlimit="50" xlink:href="#pde6b"/></g></g><g><g><use fill="#2f6dff" xlink:href="#pde6c"/><use fill="#fff" fill-opacity="0" stroke="#2f6dff" stroke-miterlimit="50" xlink:href="#pde6c"/></g></g><g><g><use fill="#2f6dff" xlink:href="#pde6d"/><use fill="#fff" fill-opacity="0" stroke="#2f6dff" stroke-miterlimit="50" xlink:href="#pde6d"/></g></g><g><g><use fill="#2f6dff" xlink:href="#pde6e"/><use fill="#fff" fill-opacity="0" stroke="#2f6dff" stroke-miterlimit="50" xlink:href="#pde6e"/></g></g><g><g><use fill="#2f6dff" xlink:href="#pde6f"/><use fill="#fff" fill-opacity="0" stroke="#2f6dff" stroke-miterlimit="50" xlink:href="#pde6f"/></g></g><g><g><use fill="#2f6dff" xlink:href="#pde6g"/><use fill="#fff" fill-opacity="0" stroke="#2f6dff" stroke-miterlimit="50" xlink:href="#pde6g"/></g></g><g><g><use fill="#2f6dff" xlink:href="#pde6h"/><use fill="#fff" fill-opacity="0" stroke="#2f6dff" stroke-miterlimit="50" xlink:href="#pde6h"/></g></g></g></g></g></svg>